name Walk5.mot
datacolumns 19
datarows 10
range 3.72100000 3.73000000
endheader

                time	   L_ground_force_vx	   L_ground_force_vy	   L_ground_force_vz	   L_ground_force_px	   L_ground_force_py	   L_ground_force_pz	   R_ground_force_vx	   R_ground_force_vy	   R_ground_force_vz	   R_ground_force_px	   R_ground_force_py	   R_ground_force_pz	   L_ground_torque_x	   L_ground_torque_y	   L_ground_torque_z	   R_ground_torque_x	   R_ground_torque_y	   R_ground_torque_z	
          3.72100000	          0.00000000	          0.00000000	         -0.00000000	          0.00000000	          0.00000000	          0.00000000	         27.22953232	        207.12537527	          4.43162763	          0.22816826	          0.00000000	          0.12198645	          0.00000000	         -0.00000000	          0.00000000	          0.00000000	         -8.15239377	          0.00000000	
          3.72200000	          0.00000000	          0.00000000	         -0.00000000	          0.00000000	          0.00000000	          0.00000000	         25.81050164	        198.89355059	          4.46077279	          0.22801305	          0.00000000	          0.12108252	          0.00000000	         -0.00000000	          0.00000000	          0.00000000	         -7.93367125	          0.00000000	
          3.72300000	          0.00000000	          0.00000000	         -0.00000000	          0.00000000	          0.00000000	          0.00000000	         24.40576097	        190.80865478	          4.47694440	          0.22777793	          0.00000000	          0.12013643	          0.00000000	         -0.00000000	          0.00000000	          0.00000000	         -7.71372349	          0.00000000	
          3.72400000	          0.00000000	          0.00000000	         -0.00000000	          0.00000000	          0.00000000	          0.00000000	         23.01697952	        182.87598851	          4.48095994	          0.22745758	          0.00000000	          0.11914690	          0.00000000	         -0.00000000	          0.00000000	          0.00000000	         -7.49280807	          0.00000000	
          3.72500000	          0.00000000	          0.00000000	         -0.00000000	          0.00000000	          0.00000000	          0.00000000	         21.64584177	        175.10053680	          4.47362925	          0.22704653	          0.00000000	          0.11811268	          0.00000000	         -0.00000000	          0.00000000	          0.00000000	         -7.27118928	          0.00000000	
          3.72600000	          0.00000000	          0.00000000	         -0.00000000	          0.00000000	          0.00000000	          0.00000000	         20.29404379	        167.48694712	          4.45575018	          0.22653922	          0.00000000	          0.11703258	          0.00000000	         -0.00000000	          0.00000000	          0.00000000	         -7.04913729	          0.00000000	
          3.72700000	          0.00000000	          0.00000000	         -0.00000000	          0.00000000	          0.00000000	          0.00000000	         18.96328900	        160.03950821	          4.42810412	          0.22592997	          0.00000000	          0.11590544	          0.00000000	         -0.00000000	          0.00000000	          0.00000000	         -6.82692732	          0.00000000	
          3.72800000	          0.00000000	          0.00000000	          0.00000000	          0.00000000	          0.00000000	          0.00000000	         17.65528310	        152.76212985	          4.39145179	          0.22521306	          0.00000000	          0.11473016	          0.00000000	         -0.00000000	          0.00000000	          0.00000000	         -6.60483894	          0.00000000	
          3.72900000	          0.00000000	          0.00000000	          0.00000000	          0.00000000	          0.00000000	          0.00000000	         16.37172786	        145.65832358	          4.34652960	          0.22438270	          0.00000000	          0.11350572	          0.00000000	         -0.00000000	          0.00000000	          0.00000000	         -6.38315535	          0.00000000	
          3.73000000	          0.00000000	          0.00000000	          0.00000000	          0.00000000	          0.00000000	          0.00000000	         15.11431381	        138.73118498	          4.29404654	          0.22343309	          0.00000000	          0.11223117	          0.00000000	         -0.00000000	          0.00000000	          0.00000000	         -6.16216259	          0.00000000	
